<svg xmlns="http://www.w3.org/2000/svg" xmlns:dc="http://purl.org/dc/elements/1.1/" xmlns:cc="http://creativecommons.org/ns#" xmlns:rdf="http://www.w3.org/1999/02/22-rdf-syntax-ns#" viewBox="0 0 120 100" width="120" height="100">
  <title>Astrolytix Logo with Trademark</title>
  <metadata>
    <rdf:RDF>
      <cc:Work rdf:about="">
        <dc:title>Astrolytix Logo - Vedic Chart with Star (Trademark Version)</dc:title>
        <dc:creator>Astrolytix</dc:creator>
        <dc:rights>Copyright 2025 Astrolytix. All rights reserved.</dc:rights>
        <dc:date>2025</dc:date>
        <dc:description>Vedic astrology chart design with 12 houses and 3D faceted golden star. Trademark of Astrolytix.</dc:description>
      </cc:Work>
    </rdf:RDF>
  </metadata>

  <!-- Background -->
  <rect width="100" height="100" fill="#1a0a2e"/>

  <!-- Outer border -->
  <rect x="5" y="5" width="90" height="90" fill="none" stroke="#d4af37" stroke-width="2"/>

  <!-- Inner square (empty center - 2x2) -->
  <rect x="27.5" y="27.5" width="45" height="45" fill="none" stroke="#d4af37" stroke-width="1.5"/>

  <!-- Top row - 4 boxes -->
  <line x1="27.5" y1="5" x2="27.5" y2="27.5" stroke="#d4af37" stroke-width="1.5"/>
  <line x1="50" y1="5" x2="50" y2="27.5" stroke="#d4af37" stroke-width="1.5"/>
  <line x1="72.5" y1="5" x2="72.5" y2="27.5" stroke="#d4af37" stroke-width="1.5"/>

  <!-- Bottom row - 4 boxes -->
  <line x1="27.5" y1="72.5" x2="27.5" y2="95" stroke="#d4af37" stroke-width="1.5"/>
  <line x1="50" y1="72.5" x2="50" y2="95" stroke="#d4af37" stroke-width="1.5"/>
  <line x1="72.5" y1="72.5" x2="72.5" y2="95" stroke="#d4af37" stroke-width="1.5"/>

  <!-- Left column -->
  <line x1="5" y1="27.5" x2="27.5" y2="27.5" stroke="#d4af37" stroke-width="1.5"/>
  <line x1="5" y1="50" x2="27.5" y2="50" stroke="#d4af37" stroke-width="1.5"/>
  <line x1="5" y1="72.5" x2="27.5" y2="72.5" stroke="#d4af37" stroke-width="1.5"/>

  <!-- Right column -->
  <line x1="72.5" y1="27.5" x2="95" y2="27.5" stroke="#d4af37" stroke-width="1.5"/>
  <line x1="72.5" y1="50" x2="95" y2="50" stroke="#d4af37" stroke-width="1.5"/>
  <line x1="72.5" y1="72.5" x2="95" y2="72.5" stroke="#d4af37" stroke-width="1.5"/>

  <!-- 3D FACETED STAR - Symmetrical -->
  <!-- Top point -->
  <polygon points="50,31 45,44 50,50" fill="#a08628"/>
  <polygon points="50,31 55,44 50,50" fill="#f0d050"/>

  <!-- Top-right point -->
  <polygon points="68,44 55,44 50,50" fill="#e8c840"/>
  <polygon points="68,44 58,53 50,50" fill="#907820"/>

  <!-- Bottom-right point -->
  <polygon points="61,65 58,53 50,50" fill="#c0a030"/>
  <polygon points="61,65 50,58 50,50" fill="#806818"/>

  <!-- Bottom-left point -->
  <polygon points="39,65 50,58 50,50" fill="#907820"/>
  <polygon points="39,65 42,53 50,50" fill="#c0a030"/>

  <!-- Top-left point -->
  <polygon points="32,44 42,53 50,50" fill="#a08628"/>
  <polygon points="32,44 45,44 50,50" fill="#d4af37"/>

  <!-- TM Symbol -->
  <text x="98" y="18" font-family="Arial, sans-serif" font-size="12" font-weight="bold" fill="#d4af37">TM</text>
</svg>
