<svg xmlns="http://www.w3.org/2000/svg" viewBox="0 0 100 100" width="100" height="100">
  <!-- Background -->
  <rect width="100" height="100" fill="#1a0a2e"/>

  <!-- Outer border -->
  <rect x="5" y="5" width="90" height="90" fill="none" stroke="#d4af37" stroke-width="2"/>

  <!-- Inner square (empty center - 2x2) -->
  <rect x="27.5" y="27.5" width="45" height="45" fill="none" stroke="#d4af37" stroke-width="1.5"/>

  <!-- Top row - 4 boxes (3 vertical lines) -->
  <line x1="27.5" y1="5" x2="27.5" y2="27.5" stroke="#d4af37" stroke-width="1.5"/>
  <line x1="50" y1="5" x2="50" y2="27.5" stroke="#d4af37" stroke-width="1.5"/>
  <line x1="72.5" y1="5" x2="72.5" y2="27.5" stroke="#d4af37" stroke-width="1.5"/>

  <!-- Bottom row - 4 boxes (3 vertical lines) -->
  <line x1="27.5" y1="72.5" x2="27.5" y2="95" stroke="#d4af37" stroke-width="1.5"/>
  <line x1="50" y1="72.5" x2="50" y2="95" stroke="#d4af37" stroke-width="1.5"/>
  <line x1="72.5" y1="72.5" x2="72.5" y2="95" stroke="#d4af37" stroke-width="1.5"/>

  <!-- Left column - 2 middle boxes (1 horizontal line) -->
  <line x1="5" y1="27.5" x2="27.5" y2="27.5" stroke="#d4af37" stroke-width="1.5"/>
  <line x1="5" y1="50" x2="27.5" y2="50" stroke="#d4af37" stroke-width="1.5"/>
  <line x1="5" y1="72.5" x2="27.5" y2="72.5" stroke="#d4af37" stroke-width="1.5"/>

  <!-- Right column - 2 middle boxes (1 horizontal line) -->
  <line x1="72.5" y1="27.5" x2="95" y2="27.5" stroke="#d4af37" stroke-width="1.5"/>
  <line x1="72.5" y1="50" x2="95" y2="50" stroke="#d4af37" stroke-width="1.5"/>
  <line x1="72.5" y1="72.5" x2="95" y2="72.5" stroke="#d4af37" stroke-width="1.5"/>
</svg>
